<svg xmlns="http://www.w3.org/2000/svg" version="1.1"  width="48" height="48" >

  <g transform="translate(0,-282.3)" >
    <g style="fill:#333333;fill-opacity:1;stroke:none" transform="scale(0.87836138,1.1384836)" >
      <path
         d="M 7.9978635,276.23327 Q 6.4616456,276.08696 5.5106536,275.74558 4.584046,275.4042 4.1207422,275.13597 l 0.9266076,-2.38967 q 0.7803012,0.36576 1.8288308,0.68276 1.0485297,0.29261 2.2189814,0.29261 1.365527,0 1.901984,-0.34138 0.536457,-0.36576 0.536457,-1.12168 0,-0.43892 -0.21946,-0.75592 -0.195075,-0.31699 -0.60961,-0.56084 -0.39015,-0.26823 -0.9753763,-0.4633 -0.5852259,-0.21946 -1.3167582,-0.48769 -0.7071479,-0.24384 -1.3899114,-0.56084 -0.6827635,-0.317 -1.2192206,-0.75592 -0.536457,-0.4633 -0.8778387,-1.0973 -0.3169974,-0.65838 -0.3169974,-1.60937 0,-0.68276 0.1706909,-1.31676 0.1950753,-0.63399 0.5852259,-1.17045 0.4145349,-0.53646 1.072914,-0.92661 0.6583791,-0.41453 1.6093711,-0.63399 v -2.36529 h 2.7798227 v 2.24337 q 1.121683,0.0975 1.975137,0.34138 0.877839,0.24384 1.365527,0.43892 l -0.682763,2.51159 q -0.707148,-0.29261 -1.682524,-0.51207 -0.950992,-0.24384 -1.9751377,-0.24384 -1.1704517,0 -1.6337555,0.41453 -0.4389194,0.41454 -0.4389194,0.97538 0,0.39015 0.1463065,0.65838 0.1706909,0.24384 0.4876882,0.43892 0.3413818,0.19507 0.8046856,0.39015 0.4633038,0.17069 1.0972983,0.39015 0.950992,0.36576 1.755678,0.7803 0.804685,0.39015 1.389911,0.92661 0.585226,0.51207 0.902223,1.21922 0.341382,0.70714 0.341382,1.65814 0,0.65838 -0.195075,1.31675 -0.195075,0.634 -0.658379,1.19484 -0.43892,0.53646 -1.194836,0.95099 -0.731533,0.39015 -1.853216,0.56084 v 2.60914 H 7.9978635 Z" />
      <path
         d="m 20.043762,269.96647 q 1.316759,0.24385 1.8776,1.07292 0.585226,0.82907 0.585226,2.38967 v 2.75544 q 0,1.02415 0.292613,1.48745 0.292613,0.4633 1.072914,0.4633 h 2.26775 v 2.34091 h -2.535979 q -2.194597,0 -3.048051,-0.951 -0.82907,-0.95099 -0.82907,-2.75543 v -3.58451 q 0,-1.02415 -0.316997,-1.53622 -0.316998,-0.53646 -1.072914,-0.53646 h -1.316758 v -2.3409 h 1.316758 q 0.755916,0 1.072914,-0.51207 0.316997,-0.53646 0.316997,-1.53622 v -3.60889 q 0,-1.80445 0.82907,-2.75544 0.853454,-0.95099 3.048051,-0.95099 h 2.535979 v 2.3409 h -2.26775 q -0.780301,0 -1.072914,0.4633 -0.292613,0.43892 -0.292613,1.48745 v 2.75544 q 0,1.5606 -0.585226,2.38967 -0.560841,0.82907 -1.8776,1.12168 z" />
      <path
         d="m 33.869723,268.57656 2.340904,-3.5845 h 3.048051 l -3.70643,5.51087 q 0.585226,0.70715 1.146067,1.51184 0.560842,0.7803 1.072914,1.58498 0.512073,0.80469 0.926608,1.53622 0.414535,0.73153 0.707148,1.31676 H 36.28378 q -0.658379,-1.24361 -1.316758,-2.21898 -0.658379,-0.97538 -1.243605,-1.75568 -0.731532,0.97538 -1.316758,1.90198 -0.585226,0.92661 -1.194836,2.07268 h -3.048052 q 0.365766,-0.68277 0.82907,-1.4143 0.487688,-0.75591 0.999761,-1.51183 0.536457,-0.7803 1.097299,-1.53622 0.585225,-0.75592 1.121683,-1.43868 l -4.023428,-5.55964 h 3.145589 z" />
      <path
         d="m 47.500607,269.91771 q -1.316758,-0.24385 -1.901984,-1.07292 -0.585226,-0.82907 -0.585226,-2.38967 v -2.75544 q 0,-1.02414 -0.292613,-1.48745 -0.292613,-0.4633 -1.072914,-0.4633 h -2.243366 v -2.3409 h 2.511595 q 1.097298,0 1.828831,0.24384 0.755916,0.24384 1.194836,0.70715 0.463304,0.4633 0.658379,1.17045 0.195075,0.68276 0.195075,1.58499 v 3.5845 q 0,1.02415 0.316997,1.56061 0.316998,0.51207 1.072915,0.51207 h 1.341142 v 2.3409 h -1.341142 q -0.755917,0 -1.072915,0.53646 -0.316997,0.51207 -0.316997,1.51183 v 3.6089 q 0,0.90222 -0.195075,1.58498 -0.195075,0.70715 -0.658379,1.17045 -0.43892,0.46331 -1.194836,0.70715 -0.731533,0.24385 -1.828831,0.24385 h -2.511595 v -2.34091 h 2.243366 q 0.780301,0 1.072914,-0.4633 0.292613,-0.43892 0.292613,-1.48745 v -2.75544 q 0,-1.5606 0.585226,-2.38967 0.585226,-0.82907 1.901984,-1.12168 z" />
    </g>
  </g>
</svg>
