<svg xmlns="http://www.w3.org/2000/svg" width="22" height="22">

  <defs>

    <linearGradient id="a" x1="0" x2="0" y1="18" y2="0" gradientUnits="userSpaceOnUse">
      <stop stop-color="#bd8d48"/>
      <stop offset="1" stop-color="#e8b971"/>
    </linearGradient>
    
    <linearGradient id="b" x1="0" x2="18" y1="0" y2="18" gradientUnits="userSpaceOnUse">
      <stop stop-color="#333333" stop-opacity="0.5" />
      <stop offset="1" stop-opacity="0.125"/>
    </linearGradient>
    
    <linearGradient id="c" x1="0" x2="18" y1="0" y2="18" gradientUnits="userSpaceOnUse">
      <stop stop-color="#ffffff"/>
      <stop offset="1" stop-color="#e0e0e0"/>
    </linearGradient>
    
  </defs>

  <g transform="translate(2 2)">

    <rect fill="url(#a)" x="0" y="0"  width="18" height="18" />
    <rect fill="#a77734" x="0" y="17" width="18" height="1" />

    <rect fill="url(#b)" x="3"  y="3"  width="6" height="4" />
    <rect fill="url(#b)" x="11" y="3"  width="6" height="4" />
    <rect fill="url(#b)" x="3"  y="8"  width="6" height="4" />
    <rect fill="url(#b)" x="11" y="8"  width="6" height="4" />
    <rect fill="url(#b)" x="3"  y="13" width="6" height="4" />
    <rect fill="url(#b)" x="11" y="13" width="6" height="4" />

    <rect fill="url(#c)" x="2"  y="2"  width="6" height="4" />
    <rect fill="url(#c)" x="10" y="2"  width="6" height="4" />
    <rect fill="url(#c)" x="2"  y="7"  width="6" height="4" />
    <rect fill="url(#c)" x="10" y="7"  width="6" height="4" />
    <rect fill="url(#c)" x="2"  y="12" width="6" height="4" />
    <rect fill="url(#c)" x="10" y="12" width="6" height="4" />

  </g>

</svg>
