<svg xmlns="http://www.w3.org/2000/svg" width="16" height="16">

  <defs>

    <linearGradient id="a" x1="0" x2="0" y1="16" y2="0" gradientUnits="userSpaceOnUse">
      <stop stop-color="#bd8d48"/>
      <stop offset="1" stop-color="#e8b971"/>
    </linearGradient>
    
    <linearGradient id="b" x1="0" x2="16" y1="0" y2="16" gradientUnits="userSpaceOnUse">
      <stop stop-color="#333333" stop-opacity="0.5" />
      <stop offset="1" stop-opacity="0.125"/>
    </linearGradient>
    
    <linearGradient id="c" x1="0" x2="16" y1="0" y2="16" gradientUnits="userSpaceOnUse">
      <stop stop-color="#ffffff"/>
      <stop offset="1" stop-color="#e0e0e0"/>
    </linearGradient>
    
  </defs>

  <g>

    <rect fill="url(#a)" x="0" y="0"  width="16" height="16" />
    <rect fill="#a77734" x="0" y="15" width="16" height="1" />

    <rect fill="url(#b)" x="2"  y="2"  width="6" height="4" />
    <rect fill="url(#b)" x="10" y="2"  width="6" height="4" />
    <rect fill="url(#b)" x="2"  y="7"  width="6" height="4" />
    <rect fill="url(#b)" x="10" y="7"  width="6" height="4" />
    <rect fill="url(#b)" x="2"  y="12" width="6" height="4" />
    <rect fill="url(#b)" x="10" y="12" width="6" height="4" />

    <rect fill="url(#c)" x="1" y="1"  width="6" height="4" />
    <rect fill="url(#c)" x="9" y="1"  width="6" height="4" />
    <rect fill="url(#c)" x="1" y="6"  width="6" height="4" />
    <rect fill="url(#c)" x="9" y="6"  width="6" height="4" />
    <rect fill="url(#c)" x="1" y="11" width="6" height="4" />
    <rect fill="url(#c)" x="9" y="11" width="6" height="4" />

  </g>

</svg>
